<?xml version="1.0" encoding="UTF-8"?><svg id="Layer_1" xmlns="http://www.w3.org/2000/svg" viewBox="0 0 151.03 56"><defs><style>.cls-1{fill:#f50000;}</style></defs><path class="cls-1" d="M3.8,0h143.61c1.1,0,1.93.32,2.7,1.1.63.68.95,1.23.93,2.15v49.46c0,.36-.03.62-.11.77h-.19s-.03.16-.05.25c-.32.79-.93,1.23-1.68,1.59-.49.21-.93.23-1.45.21h-7.88c.12-.72.28-1.42.47-2.12.02-.09.05-.19.07-.28.05-.19.11-.4.16-.6.09-.3.16-.61.25-.91.05-.19.11-.39.16-.58.02-.09.05-.18.07-.28.02-.08.05-.17.07-.26q.04-.14.05-.23c.03-.12.09-.2.16-.26.16,0,.33,0,.49-.02h.93c.86-.02,1.66-.12,2.29-.75.68-.79.6-1.82.6-2.8V9.01c0-.91,0-1.72-.49-2.54-.63-.6-1.24-.77-2.08-.77H8.1c-.7,0-1.37.21-1.87.72-.44.56-.54,1.21-.54,1.91v38.38c0,.97.24,1.86.72,2.68.74.61,1.72.61,2.63.6h77.97c-.25-.54-.49-1.07-.74-1.61-.09-.18-.18-.37-.25-.54-.51-1.12-1.03-2.22-1.56-3.34-.6-1.28-1.19-2.54-1.77-3.83-.51-1.14-1.05-2.26-1.59-3.4-4.83-.04-9.66-.07-14.65-.11-.09.28-.19.58-.3.88-.11.26-.23.54-.35.81-.04.07-.07.14-.11.23-.11.23-.21.46-.32.7-.14.3-.28.61-.4.91-.04.07-.07.15-.11.23-.26.58-.51,1.17-.75,1.75-.07.16-.14.27-.21.33h-11.94c.14-.44.32-.84.53-1.26.04-.07.07-.12.11-.19.11-.21.21-.44.32-.65.07-.16.16-.3.23-.46l.47-.95c.21-.4.4-.81.6-1.21.95-1.88,1.63-3.23,2.07-4.06.56-1.05,1.09-2.12,1.61-3.19.63-1.26,1.09-2.16,1.38-2.7.05-.11.11-.19.18-.3.54-.77,1.37-1.09,2.28-1.26.96-.16,1.93-.19,2.89-.19h.37c1.1,0,2.19.05,3.27.11h.25c.23,0,.47.02.7.04h.21c.46.04.91.07,1.37.14-.25,1.21-.93,2.28-1.45,3.4,3.05.04,6.12.07,9.22.11-.55-1.09-1.1-2.18-1.65-3.29v-.19c1.42-.09,2.82-.12,4.24-.12h1.09c3.23,0,5.3.36,6.21,1.09.42.44.72.89.98,1.44.04.07.07.14.11.21.11.23.23.46.33.68.07.14.14.3.21.44.32.63.61,1.26.93,1.89.82,1.72,1.68,3.43,2.54,5.13.3.6.6,1.17.89,1.77.04.07.07.14.11.21.47.93.93,1.86,1.37,2.8.39.81.77,1.59,1.17,2.38.04.07.07.14.11.21.32.63.63,1.24.95,1.87.18.35.35.68.53,1.03.07.12.12.26.19.39.74,1.45,1.26,2.78.75,4.41-.37,1.05-1,1.79-1.96,2.36-.91.42-1.73.46-2.71.46H4.01c-1.19,0-2.21-.16-3.1-1.02-.63-.77-.91-1.54-.91-2.52V4.36C0,2.94.07,1.98,1.1.91c.77-.74,1.63-.91,2.7-.91Z"/><path class="cls-1" d="M33.6,26.3h.3c7.53,0,12.3.99,14.33,2.98,1.33,1.52,1.68,3.43,1.58,5.39-.19,1.8-1,3.27-2.22,4.57-.05.05-.11.12-.16.18-2.96,3.19-8.45,4.08-12.55,4.38-.11,0-.21,0-.32.02-1.23.09-2.45.09-3.69.09h-1.09c-1.94,0-3.85-.11-5.78-.44-.12-.02-.25-.04-.37-.07-3.64-.65-7.26-2.05-9.49-5.13-1.23-1.77-2.01-3.87-1.96-6.04,1.89,0,3.78,0,5.67.04h.68c2.32.04,3.76.22,4.31.54.16.3.26.58.37.89.44,1.4,1.51,2.19,2.75,2.89,2.94,1.52,7.18,1.42,10.29.49.63-.23,1.12-.46,1.65-.88h.19l.09-.16c.08-.15.18-.31.28-.47.21-.53.23-1.07.07-1.63-.26-.61-.68-1-1.3-1.26-.79-.28-1.56-.51-2.36-.72-.07,0-.12-.04-.19-.05-1.4-.35-2.8-.65-4.2-.95-6.02-1.3-10.26-2.6-12.72-3.9v-.19c1.35-.07,2.71-.12,4.06-.19.63-.04,1.26-.05,1.89-.09,4.85-.22,8.17-.33,9.96-.33l-.07.05Z"/><path class="cls-1" d="M30.7,10.59h.35c1.73,0,3.45.04,5.16.32.11.01.21.03.32.05,3.76.65,7.86,2.01,10.26,5.18,1,1.54,1.58,3.2,1.56,5.04-1.4.07-2.78.11-4.18.11h-.28c-1.14,0-2.28,0-3.41-.04h-.3c-.61-.02-1.31-.07-1.8-.51-.23-.26-.42-.54-.61-.84-1.07-1.52-3.33-2.43-5.08-2.77-2.57-.4-5.69-.35-7.91,1.16-.42.35-.56.68-.7,1.21,0,.47.12.72.42,1.07,2.31,2.22,6.58,2.73,9.56,3.41.39.09.77.18,1.16.26l.89.21c.21.05.42.11.63.14.21.05.44.11.65.14.11.02.21.05.32.07.09.02.19.04.28.07.07.04.14.05.21.09.04.09.07.19.11.3h-.32c-2.26.09-4.52.21-6.76.37-2.05.14-4.1.23-6.14.23h-1.1c-2.78,0-5.72-.12-8.3-1.3-.09-.04-.19-.09-.28-.12-1.19-.6-1.93-1.47-2.35-2.71-.11-.4-.12-.77-.12-1.19v-.23c.04-2.01.88-3.71,2.26-5.15.05-.07.12-.14.18-.19,2.96-3.19,8.4-4.15,12.5-4.36.91-.04,1.84-.04,2.75-.04l.11.02Z"/><path class="cls-1" d="M125.85,28.07c.86.88,1.52,1.91,2.22,2.91v-.18c0-.28-.03-.54-.03-.82v-.28c-.03-.65-.03-1.28-.03-1.93v-.89c1.16,0,2.29,0,3.45-.02h4.8c.88,0,1.54.35,2.17.95.67.68.56,1.56.56,2.45v8.23c0,1.51-.02,3.01-.11,4.52-1.59.04-3.2.05-4.8.07-.74,0-1.49,0-2.22.04-.65,0-1.3.02-1.94.02h-1.03c-1.49.05-2.44-.1-2.84-.44-.26-.28-.46-.56-.65-.89-.18-.3-.4-.56-.63-.84-.09-.11-.18-.23-.26-.33-.32-.4-.65-.81-.98-1.21-.42-.51-.82-1-1.23-1.52-.26-.33-.54-.67-.82-1.02-.4-.49-.81-1-1.19-1.51s-.79-1-1.21-1.47c-.47-.56-.95-1.14-1.4-1.73-.09-.11-.18-.23-.26-.33-.05-.05-.09-.12-.14-.18-.3-.37-.6-.75-.89-1.12-.68-.82-1.33-1.68-1.96-2.54-.42-.57-.46-.63-.12-.18-.43-.58-.65-.92-.65-1,.93-.04,1.86-.09,2.78-.12.44-.02.86-.04,1.3-.05,4.28-.19,7,.26,8.16,1.33l-.03.09Z"/><path class="cls-1" d="M67.83,11.78h12.62c.74,1.39,1.27,2.44,1.61,3.15.6,1.24,1.21,2.47,1.82,3.69.53,1.03,1.03,2.07,1.52,3.1.25.53.49,1.03.75,1.54.04.07.07.12.09.19.16.32.32.61.47.93.05.11.11.23.18.33.05.11.11.19.16.3.07.16.11.34.11.54-1.12.09-2.22.11-3.33.11h-4.38c-1.95,0-3.17-.2-3.66-.61-.47-.58-.75-1.31-1.07-2-.26-.58-.56-1.14-.88-1.7-.04.09-.09.16-.12.25-.16.3-.32.61-.47.91-.07.12-.14.26-.19.39-.74,1.45-1.33,2.26-1.79,2.45-2.49.79-5.27.47-7.82.32-.23,0-.47-.04-.7-.04-.56-.04-1.14-.07-1.7-.11.12-.4.28-.77.47-1.16.05-.11.11-.23.18-.33.07-.12.12-.25.19-.37s.12-.26.19-.39c.18-.35.35-.7.53-1.05.19-.37.37-.74.56-1.1.35-.7.7-1.4,1.05-2.08.47-.95.95-1.89,1.42-2.82.74-1.49,1.49-2.96,2.22-4.45h-.03Z"/><path class="cls-1" d="M100.23,11.48c1.61-.04,3.22-.05,4.85-.07.75,0,1.51,0,2.24-.04.65,0,1.31-.02,1.96-.02h1.03c1.52-.05,2.46.1,2.84.44.28.33.47.68.67,1.07.12.16.25.3.37.44.05.07.11.12.16.19s.11.12.16.19c.46.56.91,1.1,1.35,1.68.33.44.68.86,1.03,1.28.44.54.88,1.07,1.3,1.63.33.44.68.86,1.03,1.3.44.54.88,1.07,1.3,1.63.35.44.68.88,1.03,1.3.47.58.93,1.17,1.38,1.77.14.18.28.35.42.53.12.15.18.33.18.53,0,.3-.18,0-.26,0-1.84.04-3.68.11-5.51.23-.7.04-1.4.07-2.1.07h-.21c-1.35,0-2.33-.39-3.31-1.3-.47-.49-.89-1-1.31-1.52l-.11-.11c.01.11.02.2.04.3.02.14.04.28.05.4,0,.07.02.14.04.19.05.39.07.75.07,1.16v.46c-1.17,0-2.35.02-3.52.02h-3.8c-1.39.01-2.31-.17-2.77-.54-.42-.46-.6-.86-.6-1.47v-11.74l.02.04Z"/><path class="cls-1" d="M110.76,27.44c.58.58.54,1.31.58,2.08v.26c.05,1.19.04,2.4.04,3.59v9.63h-11.15v-16.1c6.1-.36,9.61-.19,10.54.53v.02Z"/><path class="cls-1" d="M127.69,11.48h11.15v13.77c-6.31.19-9.77.06-10.38-.39-1.16-1.28-.79-3.82-.79-5.41v-7.98h.02Z"/><path class="cls-1" d="M109.66,47.23c.75.68,1.09,1.58,1.16,2.57-.42.02-.84.04-1.28.05-.12,0-.25,0-.37.02-.58.01-.98-.07-1.19-.25-.21-.18-.3-.32-.26-.42.04-.11-.1-.23-.4-.39-.53-.14-.98-.12-1.47.09-.46.26-.74.72-.89,1.21-.18.91-.19,1.87.3,2.7.23.3.47.49.82.67.63.05,1.21.09,1.75-.3l.3-.39c-.58-.04-1.16-.07-1.75-.11v-2.22h4.46v5.23h-1.94c-.04-.19-.07-.39-.11-.58-.09.07-.19.14-.28.23-.91.65-2,.72-3.08.6-1.14-.21-1.98-.79-2.71-1.68-.86-1.28-.96-2.89-.7-4.36.32-1.26.95-2.21,2.01-2.94,1.73-.98,4.03-.89,5.64.28v-.02Z"/><path class="cls-1" d="M112.27,46.8c.91,0,1.8,0,2.75-.02h1.89c.98,0,2,.07,2.78.74.51.54.65,1.19.65,1.91-.05.67-.3,1.17-.77,1.65-.19.09-.35.16-.49.19v.19l.21.05c.39.21.51.53.65.93.07.37.09.72.12,1.09,0,.19.03.37.03.56v.25c.02.25.07.49.12.72h.19v.49h-2.71c-.18-.58-.23-1.07-.25-1.65-.02-.49-.11-.84-.35-1.26-.42-.28-.96-.25-1.44-.26-.29-.01-.59-.02-.89-.04v3.2h-2.52v-8.73h.02ZM114.79,48.63v1.84h.93c.08,0,.17,0,.26,0,.57,0,1.11-.12,1.61-.37.16-.33.18-.65.11-1.02-.32-.37-.6-.44-1.07-.49h-1.86l.02.04Z"/><path class="cls-1" d="M121.77,46.8h2.52v4.71c-.01.65.13,1.25.42,1.8.51.28,1,.25,1.56.21.39-.12.53-.21.74-.56.14-.33.18-.56.18-.91v-3.19c0-.68,0-1.37.02-2.05h2.63v4.74c0,1.14-.07,2.12-.84,2.99-1.07,1.02-2.49,1.05-3.85,1.03-1-.04-1.94-.32-2.7-1-.81-.93-.81-1.89-.79-3.06v-4.69l.12-.03Z"/><path class="cls-1" d="M131.57,46.8c.81,0,1.63,0,2.47-.02h1.7c.89,0,1.73.12,2.43.72.54.61.72,1.24.72,2.07v.23c0,.72-.21,1.26-.6,1.87-.91.86-2.05.93-3.24.91h-1.05v3.01h-2.43v-8.79ZM133.99,48.74v1.84c.28,0,.56,0,.84.02.42.02.18,0,.26,0,.49,0,.82-.05,1.23-.32.19-.3.19-.47.19-.82-.12-.42-.21-.51-.58-.72-.33-.05-.67-.04-1-.02h-.28c-.23,0-.44,0-.67.02Z"/></svg>