<?xml version="1.0" encoding="UTF-8"?>
<svg id="Layer_1" xmlns="http://www.w3.org/2000/svg" version="1.1" viewBox="0 0 1556 577">
  <!-- Generator: Adobe Illustrator 30.1.0, SVG Export Plug-In . SVG Version: 2.1.1 Build 136)  -->
  <defs>
    <style>
      .st0 {
        fill: #fff;
      }
    </style>
  </defs>
  <path class="st0" d="M38.72-.38c1.05,0,2.1,0,3.19-.01,3.53-.01,7.06,0,10.59.01,2.56,0,5.13,0,7.69-.01,5.6-.01,11.19,0,16.79,0,8.38.01,16.75,0,25.13,0,14.28-.01,28.55-.01,42.83,0,14.47,0,28.94,0,43.41,0,.91,0,1.83,0,2.77,0,3.72,0,7.44,0,11.16,0,34.66-.02,69.33-.02,103.99,0q1.54,0,3.11,0t3.12,0c31.33,0,62.67,0,94,0,2.1,0,4.19,0,6.29,0,8.43,0,16.85,0,25.28,0,23.56,0,47.12,0,70.67,0,1.07,0,2.15,0,3.25,0,34.19,0,68.38,0,102.58,0,1.11,0,2.22,0,3.36,0,18.01,0,36.03,0,54.04.01,71.45.01,142.89.01,214.34,0,18,0,36.01,0,54.01-.01,1.11,0,2.22,0,3.36,0,34.16,0,68.31,0,102.47,0,1.07,0,2.14,0,3.25,0,23.53,0,47.06,0,70.6,0,8.42,0,16.84,0,25.26,0,2.09,0,4.19,0,6.28,0,31.33,0,62.65,0,93.98,0,1.03,0,2.05,0,3.11,0,1.03,0,2.05,0,3.11,0,34.56,0,69.13,0,103.69.01,3.71,0,7.42,0,11.13,0q1.37,0,2.76,0c14.43,0,28.86,0,43.29,0,14.18,0,28.36,0,42.54,0,8.32,0,16.64,0,24.96,0,6.17,0,12.34,0,18.51.01,2.49,0,4.97,0,7.46,0,3.37,0,6.73,0,10.1.01.96,0,1.92-.01,2.92-.02,11.36.09,19.82,3.25,27.84,11.32,6.46,7.07,9.7,12.55,9.58,22.13,0,.89,0,1.79.01,2.71.01,3,0,6-.02,9,0,2.17,0,4.34.01,6.51.01,5.97,0,11.93-.02,17.9-.02,6.43,0,12.87,0,19.3,0,11.15,0,22.29-.02,33.44-.02,11.69-.03,23.38-.04,35.07,0,.73,0,1.45,0,2.2,0,2.95,0,5.9,0,8.85,0,26.89-.03,53.79-.06,80.68-.03,25.4-.05,50.8-.06,76.21,0,.78,0,1.57,0,2.37,0,3.94,0,7.89,0,11.83,0,.78,0,1.56,0,2.36,0,1.57,0,3.14,0,4.71,0,24.96-.02,49.92-.04,74.88,0,7.31-.01,14.62-.01,21.94,0,15.38-.02,30.76-.04,46.13,0,6.36-.02,12.72-.02,19.08,0,5.81,0,11.63-.02,17.44,0,2.11,0,4.22,0,6.34,0,2.85,0,5.71-.01,8.56,0,.84,0,1.67,0,2.53q-.02,5.67-1.14,7.9h-2c-.21.85-.41,1.69-.62,2.56-3.28,8.2-9.62,12.62-17.38,16.44-5.11,2.09-9.52,2.27-14.94,2.23-.88,0-1.76,0-2.66,0-2.89,0-5.78-.02-8.67-.03-2.01,0-4.02,0-6.03,0-5.28,0-10.55-.03-15.83-.05-5.39-.02-10.78-.03-16.17-.04-10.57-.02-21.13-.06-31.7-.1,1.24-7.41,2.83-14.63,4.79-21.88.26-.98.52-1.96.79-2.97.55-2.05,1.1-4.1,1.65-6.15.85-3.15,1.68-6.3,2.52-9.45.53-2,1.07-3.99,1.6-5.99.25-.94.5-1.89.76-2.86q.35-1.3.71-2.62c.2-.76.41-1.53.62-2.32q.56-1.75,1.56-2.75c1.67-.12,3.35-.18,5.03-.21,1.04-.03,2.08-.06,3.15-.09,2.18-.05,4.36-.1,6.55-.13,8.78-.26,17.13-1.27,23.66-7.68,6.96-8.16,6.18-18.8,6.11-28.86,0-1.72,0-3.44.02-5.17.01-4.71,0-9.43,0-14.14-.01-5.09,0-10.18,0-15.27.01-9.97,0-19.93,0-29.9-.02-11.61-.01-23.22,0-34.83,0-20.71,0-41.43-.03-62.14-.02-20.1-.03-40.19-.02-60.29.01-21.89.01-43.78,0-65.66,0-2.33,0-4.67,0-7,0-1.15,0-2.3,0-3.48,0-8.09,0-16.18,0-24.27,0-9.86,0-19.72-.02-29.58,0-5.03-.02-10.06,0-15.09,0-4.61,0-9.21-.02-13.82,0-1.66,0-3.33,0-4.99.03-9.47-.05-17.72-5.02-26.14-6.45-6.11-12.79-7.99-21.5-7.88q-1.48-.01-2.99-.02c-3.31-.02-6.62,0-9.93.02-2.41,0-4.81-.01-7.22-.02-5.25-.02-10.5-.02-15.75,0-7.86.02-15.72.01-23.58,0-13.4-.02-26.8-.02-40.19,0-13.58.01-27.16.02-40.74,0-.86,0-1.71,0-2.6,0-3.49,0-6.98,0-10.48,0-32.53-.03-65.07-.03-97.6-.01q-1.45,0-2.92,0-1.45,0-2.93,0c-29.41.01-58.81.02-88.22,0-1.97,0-3.94,0-5.9,0-7.91,0-15.82,0-23.73,0-22.11,0-44.22,0-66.33,0-1.01,0-2.01,0-3.05,0-32.09,0-64.18,0-96.27.01-1.04,0-2.08,0-3.15,0-16.91,0-33.81.01-50.72.02-67.05.02-134.11.02-201.16,0-16.9,0-33.79-.01-50.69-.02-1.04,0-2.08,0-3.15,0-32.06-.01-64.11-.02-96.17-.01-1.01,0-2.01,0-3.05,0-22.09,0-44.17,0-66.26,0-7.9,0-15.8,0-23.71,0-1.97,0-3.93,0-5.9,0-29.4,0-58.8,0-88.2-.01q-1.45,0-2.92,0-1.44,0-2.92,0c-32.44-.01-64.88,0-97.32.02-3.48,0-6.96,0-10.45,0-.85,0-1.71,0-2.59,0-13.54,0-27.09,0-40.63-.01-13.31-.01-26.62,0-39.93.02-7.81.01-15.61.01-23.42,0-5.79-.01-11.58,0-17.37.02-2.33,0-4.67,0-7-.01-3.16-.02-6.32,0-9.48.02q-1.35-.02-2.73-.04c-7.18.1-14.09,2.16-19.24,7.42-4.56,5.76-5.53,12.39-5.54,19.6,0,.71,0,1.42,0,2.15,0,2.37,0,4.74,0,7.12,0,1.72,0,3.44-.01,5.16-.01,4.72,0,9.45,0,14.17,0,5.1,0,10.19-.01,15.29-.01,9.98-.01,19.96-.01,29.94,0,8.11,0,16.22,0,24.33,0,1.15,0,2.31,0,3.5,0,2.34,0,4.69,0,7.03-.01,21.99,0,43.98,0,65.97,0,20.12,0,40.24-.03,60.36-.02,20.66-.03,41.31-.02,61.97,0,11.6,0,23.2-.01,34.8-.01,9.87-.01,19.75,0,29.62,0,5.04,0,10.08,0,15.11-.01,4.61,0,9.22,0,13.84,0,1.67,0,3.34,0,5q-.1,15,7.41,27.62c7.57,6.38,17.74,6.23,27.1,6.17,1.41,0,2.82.01,4.22.02,3.86.02,7.72,0,11.57,0,4.2,0,8.4,0,12.6.02,7.36.02,14.72.02,22.08.01,10.94-.01,21.88,0,32.83.02,18.41.03,36.81.04,55.22.04,18.23,0,36.45,0,54.68.02,1.13,0,2.27,0,3.43,0,5.76,0,11.51.01,17.27.02,40.76.04,81.53.06,122.29.08,39.6.01,79.2.03,118.8.06,1.22,0,2.44,0,3.7,0,12.26,0,24.52.02,36.78.03,24.97.02,49.94.04,74.92.06q1.72,0,3.48,0c76.67.06,153.34.09,230.01.11-2.55-5.52-5.11-11.04-7.66-16.56-.87-1.87-1.73-3.74-2.6-5.61-5.31-11.48-10.65-22.94-16.06-34.38-6.19-13.09-12.26-26.23-18.19-39.44-5.31-11.78-10.91-23.36-16.49-35.02-49.83-.33-99.66-.66-151-1-.99,2.97-1.98,5.94-3,9-1.16,2.78-2.34,5.52-3.58,8.26-.34.75-.67,1.51-1.02,2.28-1.07,2.38-2.14,4.76-3.21,7.14-1.4,3.13-2.81,6.26-4.21,9.39q-.51,1.13-1.03,2.29c-2.69,6.01-5.28,12.05-7.83,18.12q-1.12,2.52-2.12,3.52c-1.59.1-3.19.12-4.79.12-1.04,0-2.07,0-3.14,0-1.15,0-2.29,0-3.47-.01-1.2,0-2.4,0-3.64,0-3.3,0-6.6,0-9.9-.01-3.44,0-6.89,0-10.33,0-6.53,0-13.05-.01-19.58-.02-7.43-.01-14.86-.02-22.29-.02-15.29-.01-30.57-.03-45.86-.05,1.4-4.55,3.23-8.75,5.37-12.99.34-.67.67-1.35,1.02-2.04,1.11-2.22,2.22-4.43,3.33-6.64.78-1.56,1.56-3.12,2.34-4.68,1.64-3.28,3.28-6.55,4.92-9.82,2.08-4.14,4.15-8.28,6.22-12.42q14.53-29.06,21.37-41.9c5.75-10.83,11.11-21.86,16.55-32.85q9.66-19.53,14.22-27.77c.57-1.04,1.14-2.07,1.73-3.14,5.63-8,14.06-11.13,23.37-12.94,9.87-1.7,19.82-2.01,29.81-2,1.26,0,2.53,0,3.83,0,11.28.05,22.53.54,33.79,1.12.85.04,1.69.09,2.57.13,2.43.13,4.87.26,7.3.4.72.04,1.43.08,2.17.12,4.73.28,9.39.79,14.09,1.42-2.49,12.45-9.63,23.5-15,35q47.02.49,95,1-8.42-16.83-17-34v-2c14.58-.98,29.13-1.19,43.74-1.19,3.75,0,7.5-.02,11.25-.04q49.95-.12,64,11.22c4.33,4.5,7.43,9.14,10.14,14.75.36.73.73,1.47,1.11,2.23,1.16,2.34,2.3,4.68,3.44,7.02.75,1.51,1.49,3.02,2.24,4.52,3.21,6.5,6.38,13.01,9.49,19.56,8.43,17.77,17.25,35.34,26.08,52.91,3.05,6.08,6.11,12.16,9.16,18.25.37.74.74,1.48,1.12,2.24,4.79,9.56,9.48,19.16,14.05,28.82,3.93,8.27,8.03,16.44,12.14,24.62q.52,1.04,1.05,2.09c3.22,6.41,6.45,12.82,9.68,19.22,1.79,3.55,3.58,7.11,5.37,10.66.67,1.33,1.34,2.67,2.02,4,7.62,15.02,12.97,28.77,7.81,45.54-3.8,10.76-10.23,18.47-20.12,24.27-9.41,4.36-17.77,4.72-27.97,4.67-1.66,0-3.31,0-4.97.01-4.56.01-9.12,0-13.67,0-4.96,0-9.91,0-14.87.01-8.69.01-17.38.01-26.07,0-12.92,0-25.84,0-38.76.01-23.74.02-47.49.02-71.23.02-3.36,0-6.73,0-10.09,0-.67,0-1.34,0-2.02,0-14.81,0-29.62,0-44.43,0-2.03,0-4.05,0-6.08,0h-16.3c-37.93.02-75.86.02-113.78.01q-1.07,0-2.17,0c-7.97,0-15.94,0-23.92,0-.72,0-1.44,0-2.18,0q-5.84,0-8.73,0c-46.04-.01-92.09,0-138.13.02-11.6,0-23.21.01-34.81.02q-1.07,0-2.16,0c-22.02.01-44.03.02-66.05.02-.69,0-1.38,0-2.09,0-15.17,0-30.34,0-45.52,0-5.43,0-10.86,0-16.29,0-1.35,0-2.7,0-4.05,0-20.86,0-41.71,0-62.57.02-22.94.01-45.89.02-68.83,0-12.85,0-25.69,0-38.54,0-8.58.01-17.15,0-25.73,0-4.89,0-9.78-.01-14.67,0-4.45.01-8.9,0-13.35-.01-1.6,0-3.2,0-4.8,0-12.36.08-22.78-1.61-31.96-10.52-6.49-7.93-9.47-15.89-9.38-26.05q0-1.32-.01-2.67c-.01-2.95,0-5.9,0-8.84,0-2.14,0-4.27-.02-6.41-.01-5.87-.01-11.74,0-17.61,0-6.33,0-12.66-.02-18.99-.02-11.68-.02-23.37-.01-35.05,0-10.79,0-21.59,0-32.38,0-1.45,0-2.9,0-4.34,0-2.18,0-4.36,0-6.55-.01-20.29-.02-40.58,0-60.86,0-.76,0-1.53,0-2.32,0-6.21,0-12.42,0-18.63.01-24.22,0-48.45-.02-72.67-.03-27.22-.04-54.44-.03-81.65,0-2.9,0-5.8,0-8.71,0-.71,0-1.43,0-2.17,0-10.79,0-21.57-.02-32.36-.01-12.27-.02-24.53,0-36.8,0-6.26.01-12.52,0-18.78-.01-5.73,0-11.46.01-17.19,0-2.07,0-4.15,0-6.22-.07-14.68.7-24.6,11.29-35.63C18.94,1.33,27.76-.46,38.72-.38Z"/>
  <path class="st0" d="M346.06,270.81c.99,0,1.97,0,2.99,0q116.38.15,147.74,30.66c13.68,15.62,17.39,35.31,16.21,55.52-1.93,18.59-10.27,33.71-23,47-.55.62-1.11,1.23-1.68,1.87-30.46,32.8-87.18,42.08-129.32,45.13-1.1.09-2.2.17-3.34.26-12.67.88-25.34.93-38.03.92-3.73,0-7.45.02-11.17.04-20.04.05-39.75-1.06-59.52-4.47-1.27-.22-2.53-.44-3.84-.66-37.47-6.68-74.82-21.08-97.87-52.85-12.54-18.26-20.71-39.87-20.23-62.24,19.51-.14,39.03,0,58.54.32,2.37.04,4.74.07,7.11.1q35.94.49,44.35,5.58c1.66,3.07,2.67,5.93,3.7,9.25,4.56,14.39,15.54,22.61,28.3,29.75,30.28,15.68,74.03,14.68,106,5,6.53-2.27,11.61-4.67,17-9h2l.81-1.62q1.19-2.38,2.81-4.94c2.19-5.47,2.36-11.03.72-16.71-2.79-6.27-7.01-10.34-13.34-12.97-8.06-2.85-16.14-5.28-24.44-7.32-.65-.16-1.3-.32-1.97-.49-14.38-3.57-28.87-6.64-43.35-9.76q-93.17-20.08-131.25-40.19v-2c13.95-.64,27.91-1.27,41.86-1.9,6.48-.29,12.97-.59,19.45-.88q75.11-3.43,102.75-3.4Z"/>
  <path class="st0" d="M316.06,108.75c1.21,0,2.41,0,3.65,0,17.94.02,35.55.34,53.29,3.25q1.62.27,3.27.54c38.81,6.63,81.01,20.79,105.73,53.46,10.34,15.88,16.18,32.95,16,52-14.41.81-28.76,1.17-43.19,1.12-.97,0-1.95,0-2.95,0-11.7-.03-23.41-.08-35.11-.43-.99-.02-1.98-.04-3-.07-6.39-.25-13.59-.77-18.54-5.23-2.44-2.73-4.34-5.6-6.28-8.7-11.07-15.66-34.23-25.17-52.25-28.44-26.54-4.22-58.61-3.6-81.47,11.93-4.29,3.52-5.74,7-7.16,12.38-.09,4.87,1.18,7.45,4.39,11.09,23.83,22.94,67.77,28.19,98.58,35.22,3.97.91,7.95,1.82,11.92,2.74,3.08.71,6.17,1.42,9.25,2.13,2.2.5,4.39,1.01,6.58,1.52,2.22.52,4.44,1.01,6.67,1.5,1.09.25,2.18.5,3.31.75.98.22,1.96.43,2.98.65.74.28,1.49.56,2.25.84.33.99.66,1.98,1,3-1.06.04-2.12.09-3.22.14-23.24.99-46.46,2.21-69.67,3.81-21.14,1.45-42.2,2.26-63.39,2.29-3.76,0-7.52.04-11.28.07-28.66.12-58.95-1.24-85.45-13.31-.95-.43-1.9-.86-2.88-1.3-12.21-6.04-19.9-15.19-24.23-27.97-1.01-4.21-1.24-7.99-1.21-12.3,0-.79,0-1.57.01-2.38.41-20.84,9.11-38.23,23.3-53.05.6-.68,1.21-1.36,1.83-2.05,30.41-32.92,86.55-42.8,128.91-44.86,9.44-.35,18.88-.33,28.33-.33Z"/>
  <path class="st0" d="M1297.05,288.99c8.78,9.08,15.78,19.66,22.95,30.01-.03-.6-.06-1.19-.09-1.81-.14-2.83-.27-5.67-.41-8.5-.05-.94-.1-1.88-.14-2.84-.3-6.6-.38-13.17-.37-19.78,0-.88,0-1.75,0-2.65,0-2.14,0-4.28.01-6.42,11.84-.09,23.68-.16,35.52-.21,5.5-.02,11-.05,16.49-.09,5.31-.04,10.62-.07,15.93-.08,2.02,0,4.04-.02,6.07-.04,2.84-.03,5.68-.03,8.52-.03.83-.01,1.66-.03,2.51-.04,9.01.06,15.81,3.7,22.3,9.78,6.81,7.06,5.81,16.07,5.79,25.28q0,1.72,0,3.47c0,3.78,0,7.57,0,11.35,0,2.65,0,5.3,0,7.95,0,5.56,0,11.12,0,16.69,0,6.37,0,12.74,0,19.11,0,5.51,0,11.02,0,16.53,0,3.27,0,6.54,0,9.82.01,15.54-.27,31.01-1.14,46.52-16.48.33-32.96.57-49.45.73-7.65.07-15.31.17-22.96.33-6.68.14-13.35.23-20.03.26-3.53.02-7.06.06-10.59.16q-23.15.65-29.25-4.45c-2.68-2.8-4.73-5.81-6.63-9.18-1.85-3.13-4.17-5.84-6.47-8.66-.9-1.16-1.8-2.31-2.7-3.47-3.3-4.22-6.7-8.34-10.11-12.46-4.28-5.17-8.53-10.36-12.7-15.61-2.78-3.48-5.61-6.93-8.42-10.39-4.16-5.1-8.27-10.24-12.31-15.44-4.03-5.17-8.2-10.21-12.46-15.2-4.95-5.81-9.69-11.77-14.39-17.78-.9-1.15-1.8-2.3-2.71-3.46-.46-.59-.92-1.18-1.4-1.79-3.03-3.86-6.1-7.67-9.21-11.46-6.99-8.53-13.66-17.25-20.2-26.13q-.64-.87-1.3-1.75-6.7-9.06-6.7-10.25c9.55-.42,19.09-.83,28.64-1.23,4.44-.18,8.87-.37,13.31-.57q66.21-2.92,84.11,13.78Z"/>
  <path class="st0" d="M699,121h130q11.33,21.52,16.56,32.48c6.11,12.78,12.39,25.48,18.75,38.15,5.34,10.62,10.61,21.26,15.68,32.02,2.52,5.33,5.12,10.61,7.78,15.87.32.64.65,1.29.98,1.95,1.6,3.17,3.21,6.33,4.82,9.49.57,1.13,1.15,2.27,1.74,3.44.52,1.01,1.03,2.02,1.57,3.06q1.11,2.55,1.11,5.55c-11.46.85-22.86,1.16-34.35,1.17-1.71,0-3.43,0-5.14.01-3.56,0-7.13,0-10.69,0-4.53,0-9.06.01-13.59.03-3.53.01-7.06.01-10.59.01-1.67,0-3.34,0-5.01.01q-30.18.13-37.62-6.24c-4.85-5.97-7.77-13.53-10.93-20.49-2.74-6-5.86-11.75-9.07-17.51-.42.83-.85,1.66-1.28,2.52-1.59,3.13-3.19,6.25-4.8,9.38-.69,1.34-1.38,2.69-2.06,4.04q-11.39,22.39-18.43,25.3c-25.59,8.09-54.37,4.9-80.68,3.27-2.41-.15-4.83-.29-7.24-.43-5.84-.35-11.67-.71-17.51-1.07,1.3-4.16,2.87-7.99,4.82-11.88.57-1.15,1.15-2.31,1.74-3.49.63-1.26,1.27-2.53,1.91-3.79.67-1.34,1.34-2.68,2.01-4.02,1.81-3.63,3.63-7.26,5.45-10.88,1.9-3.79,3.8-7.59,5.7-11.39,3.59-7.18,7.19-14.37,10.79-21.55,4.87-9.71,9.73-19.42,14.59-29.13,7.66-15.29,15.32-30.58,22.98-45.87Z"/>
  <path class="st0" d="M1033,118c16.63-.33,33.26-.57,49.89-.73,7.72-.07,15.44-.17,23.17-.33,6.73-.14,13.47-.23,20.2-.26,3.56-.02,7.12-.06,10.69-.16q23.41-.65,29.18,4.53c2.95,3.35,4.88,6.98,6.88,10.95,1.2,1.57,2.44,3.11,3.75,4.59.54.65,1.08,1.3,1.64,1.97.53.64,1.07,1.28,1.61,1.94,4.71,5.69,9.34,11.43,13.89,17.26,3.48,4.46,7.04,8.86,10.61,13.24,4.51,5.52,8.95,11.09,13.34,16.71,3.5,4.47,7.07,8.89,10.66,13.29,4.51,5.52,8.95,11.09,13.33,16.71,3.52,4.5,7.11,8.93,10.73,13.35,4.88,5.98,9.64,12.03,14.32,18.17,1.42,1.85,2.89,3.67,4.4,5.45q1.72,2.32,1.72,5.32c-.9.02-1.8.04-2.73.06-18.96.43-37.87,1.07-56.79,2.28-7.22.45-14.42.75-21.65.76-.7,0-1.39,0-2.11,0-13.82-.06-24.01-3.93-34.11-13.42-4.82-4.98-9.21-10.33-13.6-15.69l-1-1q.22,1.56.44,3.15c.19,1.41.38,2.82.56,4.23.1.68.19,1.36.29,2.06.52,3.97.76,7.84.74,11.85,0,.89,0,1.78-.01,2.69,0,.67-.01,1.34-.02,2.03-12.08.12-24.17.2-36.25.26-5.61.03-11.22.06-16.83.12-5.42.05-10.84.08-16.26.1-2.06,0-4.13.03-6.19.05q-21.46.27-28.47-5.53c-4.3-4.61-6.13-8.88-6.12-15.14,0-1.06,0-2.13,0-3.23,0-1.17,0-2.33.01-3.54,0-1.23,0-2.46,0-3.73,0-3.37,0-6.74.01-10.11,0-3.52,0-7.05,0-10.57,0-6.67.01-13.34.02-20.02.01-7.6.02-15.19.02-22.79.01-15.63.03-31.25.05-46.88Z"/>
  <path class="st0" d="M1141.56,282.5c5.86,6.01,5.62,13.51,5.99,21.51.04.91.08,1.82.13,2.75.51,12.33.44,24.67.42,37.01,0,3.5,0,7.01,0,10.51,0,6.6-.01,13.19-.02,19.79-.01,8.27-.02,16.54-.02,24.8,0,14.71-.03,29.41-.05,44.12h-115v-166q94.41-5.55,108.56,5.5Z"/>
  <path class="st0" d="M1316,118h115v142q-97.65,2.87-107-4c-11.87-13.19-8.14-39.28-8.1-55.68,0-2.11,0-4.22,0-6.33,0-7.77.02-15.53.03-23.3.02-17.39.04-34.77.06-52.69Z"/>
  <path class="st0" d="M1130.1,486.53c7.77,6.99,11.17,16.31,11.9,26.47-4.37.23-8.75.37-13.12.5-1.24.07-2.47.13-3.75.2q-9.05.19-12.23-2.45-1.58-2.16-2.78-4.33t-4.12-3.93c-5.36-1.41-10.13-1.31-15.21.93-4.62,2.77-7.59,7.36-9.27,12.41-1.81,9.39-1.96,19.39,3.05,27.77,2.39,3.14,4.94,5.14,8.44,6.89,6.46.5,12.53.93,18-3l3-4c-5.94-.33-11.88-.66-18-1v-23h46v54h-20c-.33-1.98-.66-3.96-1-6-.97.76-1.94,1.53-2.94,2.31-9.34,6.6-20.58,7.43-31.69,6.06-11.66-2.13-20.45-8.19-27.97-17.31-8.92-13.1-9.95-29.83-7.15-44.98,3.18-13.06,9.68-22.73,20.71-30.36,17.87-10.15,41.54-9.28,58.14,2.8Z"/>
  <path class="st0" d="M1157,482c9.32-.06,18.65-.12,28.25-.19,2.92-.03,5.84-.05,8.84-.08,2.35,0,4.7-.02,7.05-.02,1.19-.02,2.38-.03,3.61-.05,10.16,0,20.58.8,28.63,7.62,5.26,5.59,6.7,12.19,6.62,19.72-.54,6.9-3.1,12.1-8,17q-2.88,1.5-5,2v2c.74.17,1.49.33,2.25.5,3.97,2.16,5.28,5.39,6.75,9.5.69,3.72.96,7.42,1.19,11.19.14,1.93.28,3.86.42,5.79.05.84.11,1.69.16,2.56.24,2.54.69,4.97,1.23,7.46h2v5h-28c-1.72-6.01-2.36-10.94-2.48-17.04-.2-5.08-1.04-8.59-3.52-12.96-4.25-2.86-9.83-2.45-14.81-2.62q-4.55-.19-9.19-.38v33h-26v-90ZM1183,501v19c3.19.05,6.37.09,9.56.12q1.34.03,2.71.05,8.91.11,16.66-3.8c1.56-3.49,1.88-6.62,1.06-10.38-3.31-3.79-6.14-4.43-11-5-3.29-.11-6.58-.09-9.88-.06-3.01.02-6.02.04-9.12.06Z"/>
  <path class="st0" d="M1255,482h26c.05,4.11.1,8.21.15,12.44.04,3.29.09,6.57.14,9.86.05,3.46.1,6.93.13,10.39.04,3.98.1,7.96.16,11.94.01,1.23.02,2.47.04,3.74q-.22,10.06,4.32,18.51c5.14,2.81,10.35,2.57,16.06,2.12,4.03-1.3,5.46-2.1,7.63-5.73,1.44-3.43,1.76-5.76,1.8-9.46.02-1.2.04-2.4.06-3.64,0-1.28.01-2.56.02-3.88.02-1.34.04-2.67.05-4.01.05-3.5.08-7,.1-10.5.03-3.58.08-7.16.12-10.74.09-7.01.15-14.02.21-21.04h27c.04,7.5.08,14.99.1,22.49.01,3.49.02,6.98.05,10.48.03,4.02.04,8.04.04,12.06.01,1.23.02,2.47.03,3.74,0,11.77-.65,21.82-8.69,30.89-10.93,10.5-25.58,10.81-39.77,10.63-10.3-.33-20.01-3.22-27.77-10.28-8.24-9.57-8.29-19.45-8.2-31.56,0-1.4,0-2.8,0-4.2,0-3.66.03-7.33.05-10.99.02-3.75.03-7.49.04-11.24.02-7.33.06-14.67.1-22Z"/>
  <path class="st0" d="M1356,482c8.37-.06,16.75-.12,25.38-.19,2.62-.03,5.25-.05,7.95-.08,2.11,0,4.22-.02,6.32-.02,1.07-.02,2.14-.03,3.25-.05,9.17,0,17.87,1.28,25.1,7.34,5.6,6.4,7.39,12.75,7.38,21.25,0,.75,0,1.5,0,2.27-.16,7.47-2.24,12.93-6.06,19.29-9.43,8.92-21.06,9.52-33.44,9.31-3.59-.04-7.18-.08-10.88-.12v31h-25v-90ZM1381,502v19q4.27.09,8.62.19c.89.03,1.77.05,2.68.08,4.98.05,8.39-.47,12.69-3.27,1.96-3.06,2-4.91,1.94-8.56-1.18-4.32-2.09-5.19-5.94-7.44-3.45-.48-6.83-.38-10.31-.25-.93.02-1.86.04-2.82.05-2.29.05-4.58.12-6.87.2Z"/>
</svg>