<?xml version="1.0" encoding="UTF-8"?>
<svg id="Layer_1" data-name="Layer 1" xmlns="http://www.w3.org/2000/svg" viewBox="0 0 86.3 32">
  <defs>
    <style>
      .cls-1 {
        fill: #f50000;
      }
    </style>
  </defs>
  <path class="cls-1" d="M2.18,0c.06,0,.12,0,.18,0,.2,0,.39,0,.59,0,.14,0,.28,0,.43,0,.31,0,.62,0,.93,0,.46,0,.93,0,1.39,0,.79,0,1.58,0,2.37,0,.8,0,1.6,0,2.41,0h.15c.21,0,.41,0,.62,0,1.92,0,3.84,0,5.76,0q.09,0,.17,0t.17,0c1.74,0,3.47,0,5.21,0,.12,0,.23,0,.35,0,.47,0,.93,0,1.4,0,1.31,0,2.61,0,3.92,0,.06,0,.12,0,.18,0,1.9,0,3.79,0,5.69,0,.06,0,.12,0,.19,0,1,0,2,0,3,0,3.96,0,7.92,0,11.88,0,1,0,2,0,2.99,0,.06,0,.12,0,.19,0,1.89,0,3.79,0,5.68,0,.06,0,.12,0,.18,0,1.3,0,2.61,0,3.91,0,.47,0,.93,0,1.4,0,.12,0,.23,0,.35,0,1.74,0,3.47,0,5.21,0,.06,0,.11,0,.17,0,.06,0,.11,0,.17,0,1.92,0,3.83,0,5.75,0,.21,0,.41,0,.62,0q.08,0,.15,0c.8,0,1.6,0,2.4,0,.79,0,1.57,0,2.36,0,.46,0,.92,0,1.38,0,.34,0,.68,0,1.03,0,.14,0,.28,0,.41,0,.19,0,.37,0,.56,0,.05,0,.11,0,.16,0,.63,0,1.1.18,1.54.63.36.39.54.7.53,1.23,0,.05,0,.1,0,.15,0,.17,0,.33,0,.5,0,.12,0,.24,0,.36,0,.33,0,.66,0,.99,0,.36,0,.71,0,1.07,0,.62,0,1.24,0,1.85,0,.65,0,1.3,0,1.94,0,.04,0,.08,0,.12,0,.16,0,.33,0,.49,0,1.49,0,2.98,0,4.47,0,1.41,0,2.82,0,4.22,0,.04,0,.09,0,.13,0,.22,0,.44,0,.66,0,.04,0,.09,0,.13,0,.09,0,.17,0,.26,0,1.38,0,2.77,0,4.15,0,.41,0,.81,0,1.22,0,.85,0,1.7,0,2.56,0,.35,0,.71,0,1.06,0,.32,0,.64,0,.97,0,.12,0,.23,0,.35,0,.16,0,.32,0,.47,0,.05,0,.09,0,.14q0,.31-.06.44h-.11s-.02.09-.03.14c-.18.45-.53.7-.96.91-.28.12-.53.13-.83.12-.05,0-.1,0-.15,0-.16,0-.32,0-.48,0-.11,0-.22,0-.33,0-.29,0-.58,0-.88,0-.3,0-.6,0-.9,0-.59,0-1.17,0-1.76,0,.07-.41.16-.81.27-1.21.01-.05.03-.11.04-.16.03-.11.06-.23.09-.34.05-.17.09-.35.14-.52.03-.11.06-.22.09-.33.01-.05.03-.1.04-.16q.02-.07.04-.15s.02-.08.03-.13q.03-.1.09-.15c.09,0,.19,0,.28-.01.06,0,.12,0,.17,0,.12,0,.24,0,.36,0,.49-.01.95-.07,1.31-.43.39-.45.34-1.04.34-1.6,0-.1,0-.19,0-.29,0-.26,0-.52,0-.78,0-.28,0-.56,0-.85,0-.55,0-1.1,0-1.66,0-.64,0-1.29,0-1.93,0-1.15,0-2.3,0-3.44,0-1.11,0-2.23,0-3.34,0-1.21,0-2.43,0-3.64,0-.13,0-.26,0-.39,0-.06,0-.13,0-.19,0-.45,0-.9,0-1.35,0-.55,0-1.09,0-1.64,0-.28,0-.56,0-.84,0-.26,0-.51,0-.77,0-.09,0-.18,0-.28,0-.52,0-.98-.28-1.45-.36-.34-.71-.44-1.19-.44q-.08,0-.17,0c-.18,0-.37,0-.55,0-.13,0-.27,0-.4,0-.29,0-.58,0-.87,0-.44,0-.87,0-1.31,0-.74,0-1.49,0-2.23,0-.75,0-1.51,0-2.26,0-.05,0-.1,0-.14,0-.19,0-.39,0-.58,0-1.8,0-3.61,0-5.41,0q-.08,0-.16,0-.08,0-.16,0c-1.63,0-3.26,0-4.89,0-.11,0-.22,0-.33,0-.44,0-.88,0-1.32,0-1.23,0-2.45,0-3.68,0-.06,0-.11,0-.17,0-1.78,0-3.56,0-5.34,0-.06,0-.12,0-.17,0-.94,0-1.87,0-2.81,0-3.72,0-7.43,0-11.15,0-.94,0-1.87,0-2.81,0-.06,0-.12,0-.17,0-1.78,0-3.55,0-5.33,0-.06,0-.11,0-.17,0-1.22,0-2.45,0-3.67,0-.44,0-.88,0-1.31,0-.11,0-.22,0-.33,0-1.63,0-3.26,0-4.89,0q-.08,0-.16,0-.08,0-.16,0c-1.8,0-3.6,0-5.39,0-.19,0-.39,0-.58,0-.05,0-.09,0-.14,0-.75,0-1.5,0-2.25,0-.74,0-1.48,0-2.21,0-.43,0-.87,0-1.3,0-.32,0-.64,0-.96,0-.13,0-.26,0-.39,0-.18,0-.35,0-.53,0q-.07,0-.15,0c-.4,0-.78.12-1.07.41-.25.32-.31.69-.31,1.09,0,.04,0,.08,0,.12,0,.13,0,.26,0,.39,0,.1,0,.19,0,.29,0,.26,0,.52,0,.79,0,.28,0,.56,0,.85,0,.55,0,1.11,0,1.66,0,.45,0,.9,0,1.35,0,.06,0,.13,0,.19,0,.13,0,.26,0,.39,0,1.22,0,2.44,0,3.66,0,1.12,0,2.23,0,3.35,0,1.14,0,2.29,0,3.43,0,.64,0,1.29,0,1.93,0,.55,0,1.09,0,1.64,0,.28,0,.56,0,.84,0,.26,0,.51,0,.77,0,.09,0,.18,0,.28q0,.83.41,1.53c.42.35.98.35,1.5.34.08,0,.16,0,.23,0,.21,0,.43,0,.64,0,.23,0,.47,0,.7,0,.41,0,.82,0,1.22,0,.61,0,1.21,0,1.82,0,1.02,0,2.04,0,3.06,0,1.01,0,2.02,0,3.03,0,.06,0,.13,0,.19,0,.32,0,.64,0,.96,0,2.26,0,4.52,0,6.78,0,2.19,0,4.39,0,6.58,0,.07,0,.14,0,.21,0,.68,0,1.36,0,2.04,0,1.38,0,2.77,0,4.15,0q.1,0,.19,0c4.25,0,8.5,0,12.75,0-.14-.31-.28-.61-.42-.92-.05-.1-.1-.21-.14-.31-.29-.64-.59-1.27-.89-1.91-.34-.73-.68-1.45-1.01-2.19-.29-.65-.6-1.29-.91-1.94-2.76-.02-5.52-.04-8.37-.06-.05.16-.11.33-.17.5-.06.15-.13.31-.2.46-.02.04-.04.08-.06.13-.06.13-.12.26-.18.4-.08.17-.16.35-.23.52q-.03.06-.06.13c-.15.33-.29.67-.43,1q-.06.14-.12.19c-.09,0-.18,0-.27,0-.06,0-.11,0-.17,0-.06,0-.13,0-.19,0-.07,0-.13,0-.2,0-.18,0-.37,0-.55,0-.19,0-.38,0-.57,0-.36,0-.72,0-1.09,0-.41,0-.82,0-1.24,0-.85,0-1.69,0-2.54,0,.08-.25.18-.48.3-.72.02-.04.04-.07.06-.11.06-.12.12-.25.18-.37.04-.09.09-.17.13-.26.09-.18.18-.36.27-.54.12-.23.23-.46.34-.69q.81-1.61,1.18-2.32c.32-.6.62-1.21.92-1.82q.54-1.08.79-1.54c.03-.06.06-.11.1-.17.31-.44.78-.62,1.3-.72.55-.09,1.1-.11,1.65-.11.07,0,.14,0,.21,0,.63,0,1.25.03,1.87.06.05,0,.09,0,.14,0,.13,0,.27.01.4.02.04,0,.08,0,.12,0,.26.02.52.04.78.08-.14.69-.53,1.3-.83,1.94q2.61.03,5.27.06-.47-.93-.94-1.88v-.11c.81-.05,1.61-.07,2.42-.07.21,0,.42,0,.62,0q2.77,0,3.55.62c.24.25.41.51.56.82.02.04.04.08.06.12.06.13.13.26.19.39.04.08.08.17.12.25.18.36.35.72.53,1.08.47.98.96,1.96,1.45,2.93.17.34.34.67.51,1.01.02.04.04.08.06.12.27.53.53,1.06.78,1.6.22.46.44.91.67,1.36q.03.06.06.12c.18.36.36.71.54,1.07.1.2.2.39.3.59.04.07.07.15.11.22.42.83.72,1.59.43,2.52-.21.6-.57,1.02-1.12,1.35-.52.24-.99.26-1.55.26-.09,0-.18,0-.28,0-.25,0-.51,0-.76,0-.27,0-.55,0-.82,0-.48,0-.96,0-1.44,0-.72,0-1.43,0-2.15,0-1.32,0-2.63,0-3.95,0-.19,0-.37,0-.56,0-.04,0-.07,0-.11,0-.82,0-1.64,0-2.46,0-.11,0-.22,0-.34,0h-.9c-2.1,0-4.2,0-6.31,0q-.06,0-.12,0c-.44,0-.88,0-1.33,0-.04,0-.08,0-.12,0q-.32,0-.48,0c-2.55,0-5.1,0-7.66,0-.64,0-1.29,0-1.93,0q-.06,0-.12,0c-1.22,0-2.44,0-3.66,0-.04,0-.08,0-.12,0-.84,0-1.68,0-2.52,0-.3,0-.6,0-.9,0-.07,0-.15,0-.22,0-1.16,0-2.31,0-3.47,0-1.27,0-2.54,0-3.82,0-.71,0-1.42,0-2.14,0-.48,0-.95,0-1.43,0-.27,0-.54,0-.81,0-.25,0-.49,0-.74,0-.09,0-.18,0-.27,0-.68,0-1.26-.09-1.77-.58-.36-.44-.52-.88-.52-1.44q0-.07,0-.15c0-.16,0-.33,0-.49,0-.12,0-.24,0-.36,0-.33,0-.65,0-.98,0-.35,0-.7,0-1.05,0-.65,0-1.3,0-1.94,0-.6,0-1.2,0-1.79,0-.08,0-.16,0-.24,0-.12,0-.24,0-.36,0-1.12,0-2.25,0-3.37,0-.04,0-.08,0-.13,0-.34,0-.69,0-1.03,0-1.34,0-2.69,0-4.03,0-1.51,0-3.02,0-4.53,0-.16,0-.32,0-.48,0-.04,0-.08,0-.12,0-.6,0-1.2,0-1.79,0-.68,0-1.36,0-2.04,0-.35,0-.69,0-1.04,0-.32,0-.64,0-.95,0-.11,0-.23,0-.34,0-.81.04-1.36.63-1.97C1.08.1,1.57,0,2.18,0Z"/>
  <path class="cls-1" d="M19.21,15.03h.17q6.45,0,8.19,1.7c.76.87.96,1.96.9,3.08-.11,1.03-.57,1.87-1.27,2.61-.03.03-.06.07-.09.1-1.69,1.82-4.83,2.33-7.17,2.5-.06,0-.12,0-.18.01-.7.05-1.4.05-2.11.05-.21,0-.41,0-.62,0-1.11,0-2.2-.06-3.3-.25-.07-.01-.14-.02-.21-.04-2.08-.37-4.15-1.17-5.42-2.93-.7-1.01-1.15-2.21-1.12-3.45,1.08,0,2.16,0,3.24.02.13,0,.26,0,.39,0q1.99.03,2.46.31c.09.17.15.33.21.51.25.8.86,1.25,1.57,1.65,1.68.87,4.1.81,5.88.28.36-.13.64-.26.94-.5h.11l.05-.09q.07-.13.16-.27c.12-.3.13-.61.04-.93-.15-.35-.39-.57-.74-.72-.45-.16-.89-.29-1.35-.41-.04,0-.07-.02-.11-.03-.8-.2-1.6-.37-2.4-.54q-5.16-1.11-7.27-2.23v-.11c.77-.04,1.55-.07,2.32-.11.36-.02.72-.03,1.08-.05q4.16-.19,5.69-.19Z"/>
  <path class="cls-1" d="M17.55,6.05c.07,0,.13,0,.2,0,.99,0,1.97.02,2.95.18q.09.01.18.03c2.15.37,4.49,1.15,5.86,2.96.57.88.9,1.83.89,2.88-.8.04-1.59.06-2.39.06-.05,0-.11,0-.16,0-.65,0-1.3,0-1.95-.02-.05,0-.11,0-.17,0-.35-.01-.75-.04-1.03-.29-.13-.15-.24-.31-.35-.48-.61-.87-1.9-1.39-2.9-1.58-1.47-.23-3.25-.2-4.52.66-.24.2-.32.39-.4.69,0,.27.07.41.24.61,1.32,1.27,3.76,1.56,5.46,1.95.22.05.44.1.66.15.17.04.34.08.51.12.12.03.24.06.36.08.12.03.25.06.37.08.06.01.12.03.18.04.05.01.11.02.16.04.04.02.08.03.12.05.02.05.04.11.06.17-.06,0-.12,0-.18,0-1.29.05-2.58.12-3.86.21-1.17.08-2.34.13-3.51.13-.21,0-.42,0-.63,0-1.59,0-3.27-.07-4.74-.74-.05-.02-.11-.05-.16-.07-.68-.34-1.1-.84-1.34-1.55-.06-.23-.07-.44-.07-.68,0-.04,0-.09,0-.13.02-1.15.5-2.12,1.29-2.94.03-.04.07-.08.1-.11,1.69-1.82,4.8-2.37,7.14-2.49.52-.02,1.05-.02,1.57-.02Z"/>
  <path class="cls-1" d="M71.92,16.04c.49.5.87,1.09,1.27,1.66,0-.03,0-.07,0-.1,0-.16-.02-.31-.02-.47,0-.05,0-.1,0-.16-.02-.37-.02-.73-.02-1.1,0-.05,0-.1,0-.15,0-.12,0-.24,0-.36.66,0,1.31,0,1.97-.01.3,0,.61,0,.91,0,.29,0,.59,0,.88,0,.11,0,.22,0,.34,0,.16,0,.31,0,.47,0,.05,0,.09,0,.14,0,.5,0,.88.2,1.24.54.38.39.32.89.32,1.4q0,.1,0,.19c0,.21,0,.42,0,.63,0,.15,0,.29,0,.44,0,.31,0,.62,0,.92,0,.35,0,.71,0,1.06,0,.31,0,.61,0,.92,0,.18,0,.36,0,.54,0,.86-.01,1.72-.06,2.58-.91.02-1.83.03-2.74.04-.42,0-.85,0-1.27.02-.37,0-.74.01-1.11.01-.2,0-.39,0-.59,0q-1.28.04-1.62-.25c-.15-.16-.26-.32-.37-.51-.1-.17-.23-.32-.36-.48-.05-.06-.1-.13-.15-.19-.18-.23-.37-.46-.56-.69-.24-.29-.47-.57-.7-.87-.15-.19-.31-.38-.47-.58-.23-.28-.46-.57-.68-.86-.22-.29-.45-.57-.69-.84-.27-.32-.54-.65-.8-.99-.05-.06-.1-.13-.15-.19-.03-.03-.05-.07-.08-.1-.17-.21-.34-.43-.51-.64-.39-.47-.76-.96-1.12-1.45t-.07-.1q-.37-.5-.37-.57c.53-.02,1.06-.05,1.59-.07.25-.01.49-.02.74-.03q3.67-.16,4.66.76Z"/>
  <path class="cls-1" d="M38.77,6.73h7.21q.63,1.19.92,1.8c.34.71.69,1.41,1.04,2.11.3.59.59,1.18.87,1.77.14.3.28.59.43.88.02.04.04.07.05.11.09.18.18.35.27.53.03.06.06.13.1.19.03.06.06.11.09.17q.06.14.06.31c-.64.05-1.27.06-1.9.06-.1,0-.19,0-.29,0-.2,0-.4,0-.59,0-.25,0-.5,0-.75,0-.2,0-.39,0-.59,0-.09,0-.18,0-.28,0q-1.67,0-2.09-.35c-.27-.33-.43-.75-.61-1.14-.15-.33-.32-.65-.5-.97-.02.05-.05.09-.07.14-.09.17-.18.35-.27.52-.04.07-.08.15-.11.22q-.63,1.24-1.02,1.4c-1.42.45-3.01.27-4.47.18-.13,0-.27-.02-.4-.02-.32-.02-.65-.04-.97-.06.07-.23.16-.44.27-.66.03-.06.06-.13.1-.19.04-.07.07-.14.11-.21.04-.07.07-.15.11-.22.1-.2.2-.4.3-.6.11-.21.21-.42.32-.63.2-.4.4-.8.6-1.19.27-.54.54-1.08.81-1.61.42-.85.85-1.69,1.27-2.54Z"/>
  <path class="cls-1" d="M57.28,6.56c.92-.02,1.84-.03,2.77-.04.43,0,.86,0,1.28-.02.37,0,.75-.01,1.12-.01.2,0,.39,0,.59,0q1.3-.04,1.62.25c.16.19.27.39.38.61.07.09.14.17.21.25.03.04.06.07.09.11.03.04.06.07.09.11.26.32.52.63.77.96.19.25.39.49.59.73.25.31.5.61.74.93.19.25.39.49.59.74.25.31.5.61.74.93.2.25.39.5.59.74.27.33.53.67.79,1.01.08.1.16.2.24.3q.1.13.1.3s-.1,0-.15,0c-1.05.02-2.1.06-3.15.13-.4.02-.8.04-1.2.04-.04,0-.08,0-.12,0-.77,0-1.33-.22-1.89-.74-.27-.28-.51-.57-.75-.87l-.06-.06q.01.09.02.17c.01.08.02.16.03.23,0,.04.01.08.02.11.03.22.04.43.04.66,0,.05,0,.1,0,.15,0,.04,0,.07,0,.11-.67,0-1.34.01-2.01.01-.31,0-.62,0-.93,0-.3,0-.6,0-.9,0-.11,0-.23,0-.34,0q-1.19.01-1.58-.31c-.24-.26-.34-.49-.34-.84,0-.06,0-.12,0-.18,0-.06,0-.13,0-.2,0-.07,0-.14,0-.21,0-.19,0-.37,0-.56,0-.2,0-.39,0-.59,0-.37,0-.74,0-1.11,0-.42,0-.84,0-1.26,0-.87,0-1.73,0-2.6Z"/>
  <path class="cls-1" d="M63.3,15.68c.33.33.31.75.33,1.19,0,.05,0,.1,0,.15.03.68.02,1.37.02,2.05,0,.19,0,.39,0,.58,0,.37,0,.73,0,1.1,0,.46,0,.92,0,1.37,0,.82,0,1.63,0,2.45h-6.37v-9.2q5.23-.31,6.02.3Z"/>
  <path class="cls-1" d="M72.97,6.56h6.37v7.87q-5.41.16-5.93-.22c-.66-.73-.45-2.18-.45-3.09,0-.12,0-.23,0-.35,0-.43,0-.86,0-1.29,0-.96,0-1.93,0-2.92Z"/>
  <path class="cls-1" d="M62.67,26.99c.43.39.62.9.66,1.47-.24.01-.48.02-.73.03-.07,0-.14,0-.21.01q-.5.01-.68-.14t-.15-.24-.23-.22c-.3-.08-.56-.07-.84.05-.26.15-.42.41-.51.69-.1.52-.11,1.07.17,1.54.13.17.27.28.47.38.36.03.69.05,1-.17l.17-.22c-.33-.02-.66-.04-1-.06v-1.27h2.55v2.99h-1.11c-.02-.11-.04-.22-.06-.33-.05.04-.11.08-.16.13-.52.37-1.14.41-1.76.34-.65-.12-1.13-.45-1.55-.96-.49-.73-.55-1.65-.4-2.49.18-.72.54-1.26,1.15-1.68.99-.56,2.3-.51,3.22.16Z"/>
  <path class="cls-1" d="M64.16,26.74c.52,0,1.03,0,1.57-.01.16,0,.32,0,.49,0,.13,0,.26,0,.39,0,.07,0,.13,0,.2,0,.56,0,1.14.04,1.59.42.29.31.37.68.37,1.09-.03.38-.17.67-.44.94q-.16.08-.28.11v.11s.08.02.12.03c.22.12.29.3.37.53.04.21.05.41.07.62,0,.11.02.21.02.32,0,.05,0,.09,0,.14.01.14.04.28.07.41h.11v.28h-1.55c-.1-.33-.13-.61-.14-.94-.01-.28-.06-.48-.2-.72-.24-.16-.55-.14-.82-.15q-.25-.01-.51-.02v1.83h-1.44v-4.99ZM65.6,27.79v1.05c.18,0,.35,0,.53,0q.07,0,.15,0,.49,0,.92-.21c.09-.19.1-.37.06-.58-.18-.21-.34-.25-.61-.28-.18,0-.36,0-.55,0-.17,0-.33,0-.51,0Z"/>
  <path class="cls-1" d="M69.59,26.74h1.44c0,.23,0,.46,0,.69,0,.18,0,.36,0,.55,0,.19,0,.38,0,.58,0,.22,0,.44,0,.66,0,.07,0,.14,0,.21q-.01.56.24,1.03c.29.16.57.14.89.12.22-.07.3-.12.42-.32.08-.19.1-.32.1-.52,0-.07,0-.13,0-.2,0-.07,0-.14,0-.22,0-.07,0-.15,0-.22,0-.19,0-.39,0-.58,0-.2,0-.4,0-.6,0-.39,0-.78.01-1.17h1.5c0,.42,0,.83,0,1.25,0,.19,0,.39,0,.58,0,.22,0,.45,0,.67,0,.07,0,.14,0,.21,0,.65-.04,1.21-.48,1.71-.61.58-1.42.6-2.2.59-.57-.02-1.11-.18-1.54-.57-.46-.53-.46-1.08-.45-1.75,0-.08,0-.16,0-.23,0-.2,0-.41,0-.61,0-.21,0-.42,0-.62,0-.41,0-.81,0-1.22Z"/>
  <path class="cls-1" d="M75.19,26.74c.46,0,.93,0,1.41-.01.15,0,.29,0,.44,0,.12,0,.23,0,.35,0,.06,0,.12,0,.18,0,.51,0,.99.07,1.39.41.31.35.41.71.41,1.18,0,.04,0,.08,0,.13,0,.41-.12.72-.34,1.07-.52.49-1.17.53-1.85.52-.2,0-.4,0-.6,0v1.72h-1.39v-4.99ZM76.57,27.85v1.05q.24,0,.48.01s.1,0,.15,0c.28,0,.47-.03.7-.18.11-.17.11-.27.11-.47-.07-.24-.12-.29-.33-.41-.19-.03-.38-.02-.57-.01-.05,0-.1,0-.16,0-.13,0-.25,0-.38.01Z"/>
</svg>